<svg width="2224" height="399" viewBox="0 0 2224 399" fill="none" xmlns="http://www.w3.org/2000/svg">
<path fill-rule="evenodd" clip-rule="evenodd" d="M0 199.008C0 89.1607 89.1742 0 199.008 0C308.972 0 398.015 89.0298 398.015 199.008C398.015 308.986 308.972 398.016 199.008 398.016C89.0434 398.016 0 308.855 0 199.008ZM233.788 120.452H120.294L103.034 148.078H216.529L233.788 120.452ZM292.758 230.823L310.018 258.317L309.887 258.448H342.445L256.278 120.452L187.371 230.823H109.31L126.57 203.198H179.394L196.654 175.572H86.0361L68.7766 203.198H94.1429L59.6238 258.317H202.799L256.409 172.43L275.629 203.198H259.677L242.418 230.823H292.758ZM1370.27 175.588C1378.45 163.247 1393.51 155.583 1411.04 155.583C1443.63 155.583 1461.93 179.225 1461.93 211.18V295.226H1427.14V213.908C1427.14 196.112 1414.8 184.031 1398.7 184.031C1382.6 184.031 1370.27 196.631 1370.27 212.479V295.096H1335.47V158.571H1370.27V175.588ZM1130.09 183.252V158.571H1095.3V295.096H1130.09V222.871C1130.09 204.296 1146.45 184.81 1174.36 189.227V156.103C1153.33 153.634 1138.27 165.455 1130.09 183.252ZM687.632 295.226H652.838V103.623L687.632 92.7107V295.226ZM1247.83 155.843C1207.85 155.843 1175.66 185.72 1175.66 227.028C1175.66 268.337 1207.98 297.954 1247.83 297.954C1287.69 297.954 1320.03 268.077 1320.03 227.028C1320.03 185.98 1287.69 155.843 1247.83 155.843ZM1247.83 266.518C1226.8 266.518 1210.06 250.41 1210.06 227.418C1210.06 204.426 1226.8 187.928 1247.83 187.928C1268.87 187.928 1285.61 203.776 1285.61 227.418C1285.61 251.06 1268.99 266.518 1247.83 266.518ZM702.949 226.769C702.949 185.461 734.757 155.584 773.835 155.584V155.714C807.72 155.714 844.981 180.525 844.981 233.135C844.981 233.949 844.921 234.733 844.859 235.545C844.791 236.417 844.722 237.321 844.722 238.331H739.431C744.104 255.477 759.424 267.039 777.99 267.039C788.636 267.039 798.503 262.882 804.215 254.438H842.774C832.388 280.678 818.366 297.955 777.341 297.955C736.315 297.955 702.949 268.078 702.949 226.769ZM773.835 185.981C757.736 185.981 744.364 196.633 739.69 213.39H807.201C804.215 197.152 789.934 185.981 773.835 185.981ZM1042.31 118.691L1008.16 129.602V259.892C1008.16 280.936 1022.97 295.225 1048.16 295.225H1082.05V264.309H1058.03C1047.38 264.309 1042.44 259.373 1042.44 250.28V188.187H1082.18V158.57H1042.44V118.561L1042.31 118.691ZM961.691 212.22C956.238 197.541 943.385 188.188 928.065 188.188V188.058C907.423 188.058 891.064 204.555 891.064 227.548C891.064 250.54 912.746 266.648 928.065 266.648C943.385 266.648 956.238 257.425 961.691 242.616H997.005C990.383 275.741 967.404 297.954 928.065 297.954C888.727 297.954 856.66 268.337 856.66 227.028C856.66 185.72 894.18 155.843 928.065 155.843C961.951 155.843 990.383 179.095 997.005 212.22H961.691ZM1968.14 183.252V158.571H1933.34V295.096H1968.14V222.871C1968.14 204.296 1984.5 184.81 2012.41 189.227V156.103C1991.38 153.634 1976.32 165.455 1968.14 183.252ZM637.125 295.225H498.079V103.622H637.125V137.266H536.378V182.212H617.911V215.336H536.378V262.1H637.125V295.225ZM1728.06 295.226H1766.89L1785.71 254.437H1865.56L1885.04 295.226H1925.02L1826.47 95.4391L1727.94 295.226H1728.06ZM1799.47 225.21L1825.19 169.353L1851.67 225.21H1799.47ZM2141.06 194.553C2141.06 204.685 2155.48 208.452 2172.49 212.869V212.739C2195.73 218.844 2223.64 228.717 2223.64 254.957C2223.64 281.196 2202.34 297.954 2167.55 297.954C2132.75 297.954 2107.05 277.04 2104.06 247.812H2135.75C2137.57 261.971 2154.83 271.584 2167.43 271.584C2180.02 271.584 2189.1 268.077 2189.1 258.204C2189.1 248.605 2175.6 245.024 2159.57 240.773L2158.21 240.408C2134.97 234.432 2107.05 223.651 2107.05 197.411C2107.05 171.171 2126.27 155.583 2159.9 155.583C2193.52 155.583 2218.45 176.237 2221.43 205.465H2189.75C2187.54 191.305 2175.48 181.953 2159.38 181.953C2149.77 181.953 2141.06 184.421 2141.06 194.553ZM2058.49 118.691L2024.33 129.602V259.892C2024.33 280.936 2039.13 295.225 2064.32 295.225H2098.22V264.309H2074.2C2063.55 264.309 2058.61 259.373 2058.61 250.28V188.187H2098.34V158.57H2058.61V118.561L2058.49 118.691ZM1481.27 158.699H1516.06V295.224H1481.27V158.699ZM1498.54 96.7376C1486.47 96.7376 1476.33 106.87 1476.33 119.211C1476.33 131.551 1486.47 141.683 1498.54 141.683C1510.62 141.683 1520.99 131.551 1520.99 119.211C1520.99 106.87 1510.88 96.7376 1498.54 96.7376ZM1636.42 212.22C1630.97 197.541 1618.12 188.188 1602.8 188.188V188.058C1582.28 188.058 1565.93 204.555 1565.93 227.548C1565.93 250.54 1587.48 266.648 1602.8 266.648C1618.12 266.648 1630.97 257.425 1636.42 242.616H1671.73C1665.24 275.741 1642.14 297.954 1602.8 297.954C1563.46 297.954 1531.39 268.337 1531.39 227.028C1531.39 185.72 1568.91 155.843 1602.8 155.843C1636.68 155.843 1665.11 179.095 1671.73 212.22H1636.42Z" fill="white"/>
</svg>
