<svg width="569" height="137" viewBox="0 0 569 137" fill="none" xmlns="http://www.w3.org/2000/svg">
<path d="M472.065 116.24V37.04L510.225 71.72L548.505 37.04V116.24L510.225 81.68L472.065 116.24Z" fill="white"/>
<path d="M434.945 110H398.825V104.72H409.625V50.24H399.785V46.4L417.785 44V57.32H418.145C419.345 51.68 424.865 44 434.585 44C439.505 44 444.185 46.76 444.785 51.56C445.265 55.64 440.825 57.44 437.705 55.04C434.825 52.88 433.625 49.64 429.425 50C420.305 50.72 418.025 65.36 417.785 76.04V104.72H434.945V110Z" fill="white"/>
<path d="M377.16 111.2C363.6 111.2 357.72 96.8 357.72 78.2C357.72 61.04 363.48 44 378.36 44C389.76 44 395.28 53.12 395.28 68.6L395.16 74.72H366.6V83.6C366.6 97.52 370.32 104.96 378.84 104.96C386.64 104.96 389.52 95.36 390.24 86.84L395.04 87.32C394.2 96.68 390.36 111.2 377.16 111.2ZM378.12 48.68C370.44 48.68 366.96 57.56 366.6 70.4H383.16C385.68 70.4 387.6 69.44 387.6 65.12C387.6 54.56 384.6 48.68 378.12 48.68Z" fill="white"/>
<path d="M316.191 103.52H331.671V27.44H318.231V22.4L339.831 20V103.52H354.111V110H316.191V103.52Z" fill="white"/>
<path d="M297.733 111.2C287.173 111.2 281.053 103.04 281.053 88.4V50.24H269.773V45.2H281.053L284.653 32.36H289.213V45.2H312.133V50.24H289.213V87.8C289.213 99.2 291.733 105.08 299.533 105.08C306.973 105.08 308.293 98.84 308.293 88.16V85.04H313.333V88.16C313.333 98.96 312.133 111.2 297.733 111.2Z" fill="white"/>
<path d="M260.881 44V104.96L269.521 104.72V108.56L252.721 111.2V99.8H252.361C250.681 104.72 245.521 111.2 237.601 111.2C229.921 111.2 224.281 106.4 224.281 95.72V50.48H214.441V46.64L232.441 44V95.48C232.441 102.32 235.201 104.48 240.721 104.48C247.681 104.48 252.721 97.04 252.721 92.12V50.48H242.881V46.64L260.881 44Z" fill="white"/>
<path d="M159.294 104.72H169.374V26.48H159.294V21.2H186.534C201.054 21.2 207.774 28.76 207.774 42.8C207.774 54.68 202.134 60.32 196.974 61.4V62.24C203.574 63.56 212.454 70.52 212.454 84.92C212.454 101.12 203.574 110 187.254 110H159.294V104.72ZM187.494 59.72C195.294 59.72 198.294 56.12 198.294 48.32V37.04C198.294 29.24 195.294 26.24 187.494 26.24H177.774V59.72H187.494ZM187.494 104.96C197.334 104.96 202.614 100.88 202.614 91.04V79.16C202.614 69.32 197.334 64.64 187.494 64.64H177.774V104.96H187.494Z" fill="white"/>
<path d="M140.116 111.2C129.556 111.2 123.436 103.04 123.436 88.4V50.24H112.156V45.2H123.436L127.036 32.36H131.596V45.2H154.516V50.24H131.596V87.8C131.596 99.2 134.116 105.08 141.916 105.08C149.356 105.08 150.676 98.84 150.676 88.16V85.04H155.716V88.16C155.716 98.96 154.516 111.2 140.116 111.2Z" fill="white"/>
<path d="M72.4691 104.72H87.9491V50.24H74.5091V46.4L96.1091 44V104.72H110.389V110H72.4691V104.72ZM91.4291 37.64C87.7091 37.64 84.8291 34.76 84.8291 31.04C84.8291 27.32 87.7091 24.44 91.4291 24.44C95.1491 24.44 98.0291 27.32 98.0291 31.04C98.0291 34.76 95.1491 37.64 91.4291 37.64Z" fill="white"/>
<path d="M44.48 111.2C30.2 111.2 20.48 91.04 20.48 65.84C20.48 42.8 28.64 20 45.56 20C54.44 20 58.4 26.96 59.72 32.12H60.68V21.2H65.72V51.44H58.28V48.68C58.28 32.6 52.76 25.64 44.72 25.64C35.84 25.64 30.56 34.52 30.56 47V83.36C30.56 94.76 35.96 105.56 44.24 105.56C56.24 105.56 58.04 89.24 58.04 73.16V66.8H40.52V61.52H65.96V110H60.56V95.6H59.48C58.28 102.32 54.32 111.2 44.48 111.2Z" fill="white"/>
</svg>
