<svg width="3411" height="908" viewBox="0 0 3411 908" fill="none" xmlns="http://www.w3.org/2000/svg">
<path d="M1018.31 570.981V327.134H1082.84V417.919H1155.62V327.134H1220.14V570.981H1155.62V474.193H1082.84V570.981H1018.31ZM1325.8 575.482C1305.29 575.482 1290.41 568.605 1281.16 554.85C1271.9 540.843 1267.28 522.212 1267.28 498.951V383.408H1331.8V490.7C1331.8 502.705 1333.3 510.705 1336.3 514.707C1339.55 518.709 1344.31 520.71 1350.56 520.71C1356.56 520.71 1361.56 519.46 1365.57 516.96C1369.57 514.459 1373.57 510.206 1377.57 504.203V383.408H1442.1V570.981H1389.57L1385.07 546.223H1383.57C1376.07 555.225 1367.69 562.354 1358.44 567.606C1349.43 572.858 1338.56 575.482 1325.8 575.482ZM1553.94 648.263C1539.68 648.263 1526.55 646.637 1514.54 643.386C1502.54 640.383 1492.91 635.506 1485.66 628.753C1478.66 622.003 1475.16 612.997 1475.16 601.742C1475.16 586.988 1483.91 574.983 1501.42 565.729V564.227C1496.62 560.681 1492.44 556.373 1489.04 551.475C1485.78 546.223 1484.16 539.717 1484.16 531.965C1484.16 525.463 1486.04 519.085 1489.79 512.834C1493.79 506.58 1498.92 501.204 1505.17 496.703V495.201C1498.41 490.7 1492.41 484.322 1487.16 476.067C1482.16 467.564 1479.66 457.934 1479.66 447.182C1479.66 431.674 1483.41 418.922 1490.91 408.917C1498.66 398.661 1508.67 391.16 1520.92 386.408C1533.18 381.407 1546.18 378.903 1559.94 378.903C1570.94 378.903 1580.95 380.405 1589.95 383.408H1659.73V429.925H1632.72C1633.47 432.177 1634.09 435.053 1634.59 438.552C1635.34 442.054 1635.72 445.681 1635.72 449.431C1635.72 464.189 1632.34 476.194 1625.59 485.448C1618.84 494.45 1609.71 501.08 1598.2 505.33C1586.7 509.583 1573.94 511.708 1559.94 511.708C1553.69 511.708 1546.68 510.833 1538.93 509.08C1535.93 511.832 1534.43 515.458 1534.43 519.959C1534.43 523.961 1536.43 526.837 1540.43 528.59C1544.68 530.339 1551.44 531.214 1560.69 531.214H1588.83C1612.33 531.214 1630.47 535.092 1643.22 542.844C1656.23 550.348 1662.73 562.726 1662.73 579.983C1662.73 593.49 1658.23 605.368 1649.23 615.624C1640.47 625.877 1627.97 633.881 1611.71 639.632C1595.45 645.387 1576.19 648.263 1553.94 648.263ZM1559.94 473.442C1565.94 473.442 1570.82 471.317 1574.57 467.064C1578.32 462.814 1580.2 456.185 1580.2 447.182C1580.2 438.428 1578.32 432.05 1574.57 428.048C1570.82 423.798 1565.94 421.673 1559.94 421.673C1553.94 421.673 1549.06 423.798 1545.31 428.048C1541.55 432.05 1539.68 438.428 1539.68 447.182C1539.68 456.185 1541.55 462.814 1545.31 467.064C1549.06 471.317 1553.94 473.442 1559.94 473.442ZM1564.44 608.496C1574.94 608.496 1583.7 606.87 1590.7 603.619C1597.7 600.616 1601.2 596.49 1601.2 591.238C1601.2 586.238 1598.95 583.11 1594.45 581.86C1590.2 580.61 1584.07 579.983 1576.07 579.983H1561.44C1553.94 579.983 1548.18 579.735 1544.18 579.233C1540.43 578.985 1537.18 578.485 1534.43 577.734C1529.93 582.236 1527.68 586.737 1527.68 591.238C1527.68 597.241 1531.05 601.618 1537.8 604.37C1544.81 607.121 1553.69 608.496 1564.44 608.496ZM1758.73 648.263C1744.47 648.263 1731.34 646.637 1719.34 643.386C1707.33 640.383 1697.7 635.506 1690.45 628.753C1683.45 622.003 1679.95 612.997 1679.95 601.742C1679.95 586.988 1688.7 574.983 1706.21 565.729V564.227C1701.41 560.682 1697.23 556.374 1693.83 551.475C1690.58 546.223 1688.95 539.717 1688.95 531.965C1688.95 525.463 1690.83 519.085 1694.58 512.834C1698.58 506.58 1703.71 501.204 1709.96 496.703V495.201C1703.21 490.7 1697.2 484.322 1691.95 476.067C1686.95 467.564 1684.45 457.934 1684.45 447.182C1684.45 431.674 1688.2 418.922 1695.7 408.917C1703.46 398.661 1713.46 391.16 1725.72 386.408C1737.97 381.407 1750.97 378.903 1764.73 378.903C1775.74 378.903 1785.74 380.405 1794.74 383.408H1864.52V429.925H1837.51C1838.26 432.177 1838.88 435.053 1839.39 438.552C1840.13 442.054 1840.51 445.681 1840.51 449.431C1840.51 464.189 1837.13 476.194 1830.38 485.448C1823.63 494.45 1814.5 501.08 1803 505.33C1791.49 509.583 1778.74 511.708 1764.73 511.708C1758.48 511.708 1751.48 510.833 1743.72 509.08C1740.72 511.832 1739.22 515.458 1739.22 519.959C1739.22 523.961 1741.22 526.837 1745.22 528.59C1749.48 530.339 1756.23 531.214 1765.48 531.214H1793.62C1817.13 531.214 1835.26 535.092 1848.01 542.844C1861.02 550.348 1867.52 562.726 1867.52 579.983C1867.52 593.49 1863.02 605.368 1854.02 615.624C1845.26 625.877 1832.76 633.881 1816.5 639.632C1800.25 645.387 1780.99 648.263 1758.73 648.263ZM1764.73 473.442C1770.73 473.442 1775.61 471.317 1779.36 467.064C1783.11 462.814 1784.99 456.185 1784.99 447.182C1784.99 438.428 1783.11 432.05 1779.36 428.048C1775.61 423.798 1770.73 421.673 1764.73 421.673C1758.73 421.673 1753.85 423.798 1750.1 428.048C1746.35 432.05 1744.47 438.428 1744.47 447.182C1744.47 456.185 1746.35 462.814 1750.1 467.064C1753.85 471.317 1758.73 473.442 1764.73 473.442ZM1769.23 608.496C1779.74 608.496 1788.49 606.87 1795.49 603.619C1802.5 600.616 1806 596.49 1806 591.238C1806 586.238 1803.75 583.11 1799.24 581.86C1795 580.61 1788.86 579.983 1780.86 579.983H1766.23C1758.73 579.983 1752.98 579.735 1748.97 579.233C1745.22 578.985 1741.97 578.485 1739.22 577.734C1734.72 582.236 1732.47 586.737 1732.47 591.238C1732.47 597.241 1735.85 601.618 1742.6 604.37C1749.6 607.121 1758.48 608.496 1769.23 608.496ZM1895.25 570.981V383.408H1959.77V570.981H1895.25ZM1927.51 360.148C1917.01 360.148 1908.5 357.272 1902 351.521C1895.49 345.518 1892.24 337.638 1892.24 327.885C1892.24 318.132 1895.49 310.376 1902 304.625C1908.5 298.622 1917.01 295.623 1927.51 295.623C1938.01 295.623 1946.52 298.622 1953.02 304.625C1959.52 310.376 1962.77 318.132 1962.77 327.885C1962.77 337.638 1959.52 345.518 1953.02 351.521C1946.52 357.272 1938.01 360.148 1927.51 360.148ZM2003.32 570.981V383.408H2055.84L2060.34 405.914H2061.84C2069.34 398.661 2077.85 392.41 2087.35 387.158C2097.11 381.655 2108.36 378.903 2121.12 378.903C2141.87 378.903 2156.75 385.908 2165.76 399.915C2175.01 413.67 2179.64 432.177 2179.64 455.434V570.981H2115.11V463.689C2115.11 451.684 2113.61 443.68 2110.61 439.678C2107.61 435.676 2102.86 433.675 2096.35 433.675C2090.36 433.675 2085.35 434.926 2081.35 437.429C2077.35 439.93 2072.85 443.432 2067.85 447.933V570.981H2003.32ZM2289.94 648.263C2275.69 648.263 2262.56 646.637 2250.55 643.386C2238.55 640.383 2228.92 635.506 2221.67 628.753C2214.66 622.003 2211.17 612.997 2211.17 601.742C2211.17 586.988 2219.92 574.983 2237.42 565.729V564.227C2232.63 560.681 2228.45 556.373 2225.04 551.475C2221.79 546.223 2220.17 539.717 2220.17 531.965C2220.17 525.463 2222.04 519.085 2225.79 512.834C2229.8 506.58 2234.92 501.204 2241.18 496.703V495.201C2234.42 490.7 2228.42 484.322 2223.17 476.067C2218.17 467.564 2215.67 457.934 2215.67 447.182C2215.67 431.674 2219.42 418.922 2226.92 408.917C2234.67 398.661 2244.68 391.16 2256.93 386.408C2269.19 381.407 2282.19 378.903 2295.95 378.903C2306.95 378.903 2316.96 380.405 2325.96 383.408H2395.73V429.925H2368.72C2369.47 432.177 2370.1 435.053 2370.6 438.552C2371.35 442.054 2371.73 445.681 2371.73 449.431C2371.73 464.189 2368.35 476.194 2361.6 485.448C2354.85 494.45 2345.72 501.08 2334.21 505.33C2322.71 509.583 2309.95 511.708 2295.95 511.708C2289.69 511.708 2282.69 510.833 2274.94 509.08C2271.94 511.832 2270.44 515.458 2270.44 519.959C2270.44 523.961 2272.44 526.837 2276.44 528.59C2280.69 530.339 2287.44 531.214 2296.7 531.214H2324.83C2348.34 531.214 2366.48 535.092 2379.23 542.844C2392.24 550.348 2398.74 562.726 2398.74 579.983C2398.74 593.49 2394.24 605.368 2385.23 615.624C2376.48 625.877 2363.98 633.881 2347.72 639.632C2331.46 645.387 2312.2 648.263 2289.94 648.263ZM2295.95 473.442C2301.95 473.442 2306.83 471.317 2310.58 467.064C2314.33 462.814 2316.2 456.185 2316.2 447.182C2316.2 438.428 2314.33 432.05 2310.58 428.048C2306.83 423.798 2301.95 421.673 2295.95 421.673C2289.94 421.673 2285.07 423.798 2281.32 428.048C2277.56 432.05 2275.69 438.428 2275.69 447.182C2275.69 456.185 2277.56 462.814 2281.32 467.064C2285.07 471.317 2289.94 473.442 2295.95 473.442ZM2300.45 608.496C2310.95 608.496 2319.71 606.87 2326.71 603.619C2333.71 600.616 2337.21 596.49 2337.21 591.238C2337.21 586.238 2334.96 583.11 2330.46 581.86C2326.21 580.61 2320.08 579.983 2312.08 579.983H2297.45C2289.94 579.983 2284.19 579.735 2280.19 579.233C2276.44 578.985 2273.19 578.485 2270.44 577.734C2265.93 582.236 2263.68 586.737 2263.68 591.238C2263.68 597.241 2267.06 601.618 2273.81 604.37C2280.81 607.121 2289.69 608.496 2300.45 608.496ZM2506.82 570.981V327.134H2665.88V381.156H2571.34V427.673H2652.37V481.694H2571.34V570.981H2506.82ZM2736.44 575.482C2724.69 575.482 2714.56 572.858 2706.05 567.606C2697.94 562.252 2691.34 554.884 2686.92 546.223C2682.42 537.468 2680.17 527.963 2680.17 517.71C2680.17 498.201 2688.17 482.948 2704.18 471.941C2720.18 460.686 2746.2 453.185 2782.21 449.431C2780.71 436.427 2771.95 429.925 2755.95 429.925C2749.2 429.925 2742.07 431.299 2734.57 434.051C2727.06 436.551 2718.44 440.429 2708.68 445.681L2686.17 403.665C2699.43 395.661 2712.81 389.535 2726.31 385.281C2740.04 381.034 2754.33 378.884 2768.7 378.903C2793.21 378.903 2812.35 385.908 2826.1 399.915C2839.86 413.67 2846.73 435.928 2846.73 466.689V570.981H2794.22L2789.71 552.973H2788.21C2780.71 559.726 2772.7 565.23 2764.2 569.479C2755.95 573.481 2746.7 575.482 2736.44 575.482ZM2758.95 525.962C2764.2 525.962 2768.58 524.836 2772.08 522.587C2775.58 520.087 2778.96 516.96 2782.21 513.209V487.697C2766.95 489.949 2756.33 493.324 2750.32 497.825C2744.57 502.33 2741.69 507.207 2741.69 512.459C2741.69 521.461 2747.45 525.962 2758.95 525.962ZM2973.59 575.482C2955.83 575.482 2939.82 571.604 2925.57 563.852C2911.31 556.1 2899.93 544.969 2891.43 530.463C2883.17 515.71 2879.05 497.953 2879.05 477.193C2879.05 456.436 2883.68 438.803 2892.93 424.298C2902.43 409.54 2914.81 398.289 2930.07 390.533C2945.32 382.781 2961.83 378.903 2979.59 378.903C2990.84 378.903 3000.97 380.656 3009.97 384.155C3019.23 387.658 3027.36 392.41 3034.36 398.413L3004.35 439.678C3000.35 436.179 2996.72 433.803 2993.47 432.553C2990.24 431.304 2986.8 430.668 2983.34 430.676C2971.33 430.676 2961.96 434.926 2955.2 443.432C2948.45 451.684 2945.07 462.938 2945.07 477.193C2945.07 491.451 2948.58 502.829 2955.58 511.332C2962.58 519.584 2971.08 523.713 2981.09 523.713C2986.34 523.713 2991.47 522.587 2996.47 520.335C3001.6 517.908 3006.49 515.02 3011.1 511.708L3035.86 553.723C3026.61 561.979 3016.35 567.73 3005.1 570.981C2993.84 573.981 2983.34 575.482 2973.59 575.482ZM3141.43 575.482C3123.17 575.482 3106.66 571.604 3091.91 563.852C3077.4 556.1 3065.9 544.969 3057.39 530.463C3048.89 515.71 3044.64 497.953 3044.64 477.193C3044.64 456.936 3048.89 439.554 3057.39 425.048C3066.15 410.291 3077.4 398.912 3091.16 390.909C3104.91 382.905 3119.42 378.903 3134.68 378.903C3153.18 378.903 3168.44 383.033 3180.44 391.284C3192.7 399.288 3201.7 410.167 3207.45 423.922C3213.46 437.677 3216.46 452.934 3216.46 469.692C3216.46 475.192 3216.08 480.571 3215.33 485.823C3214.83 490.824 3214.33 494.45 3213.83 496.703H3106.91C3109.91 507.957 3115.29 515.834 3123.05 520.335C3130.8 524.588 3139.93 526.713 3150.43 526.713C3162.44 526.713 3175.19 522.962 3188.7 515.458L3209.71 553.723C3199.7 560.725 3188.45 566.104 3175.94 569.855C3163.44 573.605 3151.93 575.482 3141.43 575.482ZM3106.16 454.683H3161.69C3161.69 447.43 3159.81 441.18 3156.06 435.928C3152.56 430.424 3145.93 427.673 3136.18 427.673C3129.17 427.673 3122.92 429.801 3117.42 434.051C3111.92 438.304 3108.16 445.182 3106.16 454.683Z" fill="white"/>
<g filter="url(#filter0_d_1148_7467)">
<path d="M879.619 606.719C877.716 599.542 874.635 592.731 870.504 586.561C871.389 583.31 872.062 580.01 872.515 576.677C875.447 555.513 868.113 536.138 854.284 521.144C846.794 512.956 838.765 507.552 830.262 504.233C835.844 480.353 838.669 455.913 838.684 431.389C838.684 420.191 838.05 409.22 836.987 398.411C836.432 393.013 835.763 387.628 834.979 382.259C832.543 366.418 828.931 350.78 824.171 335.476C821.051 325.421 817.443 315.523 813.359 305.82C807.234 291.45 800.084 277.539 791.965 264.194C786.636 255.317 780.833 246.733 774.583 238.479C771.521 234.311 768.328 230.241 765.007 226.275C755.171 214.317 744.479 203.089 733.017 192.678C729.212 189.178 725.298 185.799 721.281 182.546C717.324 179.246 713.281 176.051 709.155 172.966C700.85 166.785 692.267 160.987 683.434 155.588C634.629 125.946 577.395 108.951 516.224 108.951C338.121 108.951 193.768 253.307 193.768 431.403C193.763 456.235 196.64 480.983 202.342 505.15C194.692 508.472 187.358 513.646 180.562 521.137C166.736 536.12 159.398 555.428 162.334 576.589C162.777 579.953 163.449 583.282 164.342 586.554C160.212 592.727 157.131 599.541 155.226 606.719C150.976 622.872 152.375 637.438 157.776 650.198C151.908 666.881 153.374 684.645 161.02 700.09C166.58 711.369 174.538 720.092 184.344 727.894C196.006 737.162 210.604 745.041 228.215 752.595C249.223 761.555 274.863 769.973 286.525 773.061C316.649 780.863 345.533 785.807 374.81 786.044C416.514 786.434 452.432 776.624 478.15 751.526C490.782 753.073 503.496 753.849 516.224 753.845C529.671 753.815 543.104 752.969 556.448 751.31C582.102 776.567 618.158 786.466 660.017 786.065C689.288 785.835 718.172 780.891 748.217 773.079C759.957 769.991 785.59 761.573 806.609 752.616C824.22 745.045 838.815 737.169 850.558 727.911C860.29 720.113 868.241 711.387 873.804 700.107C881.528 684.663 882.92 666.899 877.126 650.215C882.477 637.456 883.865 622.858 879.619 606.719ZM849.733 649.118C855.651 660.347 856.03 673.036 850.806 684.854C842.887 702.767 823.218 716.873 785.016 732.019C761.264 741.443 739.509 747.464 739.318 747.52C707.898 755.669 679.481 759.806 654.882 759.806C614.149 759.806 583.841 748.569 564.618 726.371C532.111 731.906 498.917 732.094 466.35 726.927C447.105 748.756 416.964 759.806 376.574 759.806C351.971 759.806 323.558 755.669 292.139 747.52C291.944 747.464 270.203 741.443 246.44 732.019C208.238 716.873 188.565 702.774 180.65 684.854C175.427 673.036 175.806 660.347 181.723 649.118C182.272 648.076 182.857 647.056 183.483 646.075C179.936 640.748 177.557 634.73 176.503 628.418C175.448 622.105 175.741 615.641 177.364 609.45C179.715 600.518 184.574 593.088 191.168 587.751C187.993 582.532 185.909 576.722 185.042 570.674C183.143 557.521 187.507 544.386 197.33 533.68C204.976 525.347 215.789 520.761 227.762 520.761H228.081C219.055 491.831 214.478 461.698 214.507 431.393C214.507 266.106 348.504 132.105 513.809 132.105C679.117 132.105 813.111 266.095 813.111 431.393C813.132 461.779 808.524 491.99 799.444 520.988C800.889 520.846 802.306 520.772 803.694 520.772C815.664 520.772 826.48 525.354 834.126 533.687C843.943 544.386 848.316 557.532 846.415 570.681C845.548 576.731 843.464 582.541 840.288 587.762C846.882 593.095 851.741 600.525 854.092 609.46C855.711 615.652 856.003 622.115 854.948 628.427C853.894 634.74 851.517 640.757 847.973 646.086C848.6 647.056 849.191 648.076 849.733 649.118Z" fill="white"/>
</g>
<path d="M847.975 646.085C851.518 640.756 853.896 634.739 854.95 628.427C856.005 622.115 855.713 615.651 854.094 609.46C851.743 600.528 846.884 593.098 840.29 587.761C843.464 582.541 845.548 576.732 846.417 570.684C848.315 557.531 843.952 544.396 834.128 533.69C826.482 525.357 815.666 520.771 803.696 520.771C802.304 520.771 800.891 520.842 799.446 520.987C808.516 491.989 813.116 461.779 813.088 431.395C813.088 266.112 679.09 132.107 513.8 132.107C348.51 132.107 214.498 266.098 214.498 431.395C214.469 461.701 219.046 491.834 228.072 520.764H227.753C215.783 520.764 204.971 525.35 197.325 533.683C187.508 544.382 183.138 557.524 185.036 570.677C185.903 576.725 187.987 582.535 191.163 587.754C184.569 593.091 179.71 600.521 177.362 609.456C175.741 615.648 175.448 622.113 176.504 628.427C177.56 634.74 179.941 640.758 183.489 646.085C182.855 647.066 182.274 648.086 181.729 649.127C175.815 660.357 175.432 673.046 180.656 684.864C188.571 702.773 208.244 716.886 246.445 732.029C270.198 741.453 291.953 747.473 292.144 747.53C323.564 755.679 351.977 759.819 376.576 759.819C416.97 759.819 447.107 748.77 466.355 726.937C498.923 732.104 532.116 731.916 564.623 726.381C583.843 748.578 614.154 759.819 654.888 759.819C679.487 759.819 707.903 755.679 739.323 747.53C739.514 747.473 761.259 741.453 785.022 732.029C823.224 716.886 842.896 702.773 850.811 684.864C856.035 673.046 855.656 660.357 849.738 649.127C849.197 648.076 848.602 647.059 847.975 646.085ZM452.582 692.762C450.925 695.66 449.149 698.49 447.26 701.243C442.284 708.528 435.739 714.092 428.146 718.232C413.623 726.147 395.246 728.916 376.572 728.916C347.079 728.916 316.842 722.014 299.893 717.615C299.061 717.399 196.008 688.292 209.055 663.516C211.25 659.352 214.866 657.687 219.413 657.687C237.783 657.687 271.232 685.041 285.61 685.041C288.819 685.041 291.085 683.671 292.01 680.338C298.136 658.363 198.894 649.127 207.252 617.311C208.729 611.68 212.727 609.396 218.354 609.396C242.638 609.392 297.148 652.102 308.548 652.102C309.423 652.102 310.05 651.847 310.39 651.309L310.538 651.065C315.886 642.229 312.819 635.804 276.158 613.352L272.638 611.209C232.301 586.791 203.983 572.101 220.09 554.571C221.942 552.545 224.566 551.649 227.757 551.649C231.543 551.649 236.122 552.917 241.165 555.038C262.47 564.023 291.999 588.526 304.334 599.214C307.971 602.38 310.113 604.314 310.113 604.314C310.113 604.314 325.731 620.555 335.176 620.555C337.351 620.555 339.192 619.701 340.442 617.58C347.143 606.29 278.244 554.082 274.359 532.543C271.728 517.945 276.208 510.554 284.498 510.554C288.436 510.554 293.245 512.229 298.554 515.597C315.022 526.051 346.817 580.689 358.458 601.941C362.36 609.066 369.022 612.077 375.025 612.077C386.935 612.077 396.245 600.238 376.115 585.194C345.861 562.553 356.478 525.552 370.917 523.275C371.533 523.179 372.156 523.13 372.776 523.126C385.908 523.126 391.701 545.756 391.701 545.756C391.701 545.756 408.676 588.388 437.839 617.527C464.305 643.978 467.998 665.687 452.582 692.762ZM546.888 697.755L545.376 697.936L542.794 698.233C541.437 698.371 540.081 698.506 538.718 698.633L537.386 698.754L536.175 698.856L534.45 698.995C533.816 699.041 533.182 699.09 532.548 699.129L530.65 699.257L530.232 699.281L528.738 699.37L528.104 699.402L526.333 699.49L524.276 699.575L522.406 699.639L521.159 699.674H520.529C520.139 699.674 519.753 699.696 519.364 699.699H518.744C518.354 699.699 517.968 699.699 517.579 699.721L515.996 699.738H513.779C512.04 699.738 510.308 699.721 508.576 699.689L507.174 699.657C506.777 699.657 506.377 699.635 505.98 699.625L504.497 699.579L502.648 699.508L500.987 699.437L500.555 699.419L498.972 699.334C498.533 699.31 498.094 699.288 497.658 699.26L496.635 699.2C495.348 699.118 494.063 699.027 492.778 698.927L491.432 698.821L489.732 698.676L487.745 698.492C486.636 698.387 485.528 698.274 484.42 698.152H484.367C500.551 662.047 492.367 628.328 459.662 595.648C438.215 574.229 423.943 542.593 420.986 535.649C414.993 515.091 399.131 492.238 372.794 492.238C370.567 492.242 368.345 492.418 366.146 492.765C354.605 494.578 344.519 501.222 337.322 511.216C329.549 501.544 321.988 493.856 315.153 489.511C304.847 482.98 294.566 479.665 284.544 479.665C272.043 479.665 260.862 484.801 253.071 494.115L252.876 494.352L252.437 492.507L252.42 492.429C250.938 486.089 249.693 479.695 248.687 473.262C248.687 473.216 248.687 473.174 248.666 473.131L248.446 471.676C248.327 470.889 248.211 470.102 248.099 469.314C248.007 468.659 247.915 468.003 247.83 467.352C247.745 466.7 247.653 466.045 247.575 465.39C247.49 464.731 247.412 464.076 247.334 463.421C247.259 462.798 247.187 462.175 247.118 461.551L247.097 461.392C246.778 458.517 246.504 455.637 246.275 452.754L246.151 451.086C246.116 450.629 246.084 450.169 246.056 449.705C246.056 449.598 246.041 449.489 246.034 449.39L245.918 447.541C245.875 446.872 245.843 446.202 245.808 445.533C245.772 444.867 245.737 444.198 245.709 443.525L245.638 441.772L245.617 441.241L245.563 439.619L245.524 438.245C245.524 437.696 245.5 437.143 245.489 436.594L245.461 434.862C245.454 434.285 245.461 433.712 245.447 433.134C245.429 432.553 245.447 431.976 245.447 431.395C245.447 283.179 365.611 163.014 513.842 163.014C662.073 163.014 782.235 283.172 782.235 431.395V434.862C782.235 435.44 782.221 436.021 782.206 436.594C782.206 437.076 782.189 437.547 782.175 438.029C782.175 438.457 782.157 438.882 782.139 439.296C782.139 439.838 782.107 440.377 782.09 440.918V440.964C782.042 442.14 781.994 443.316 781.944 444.492L781.923 444.881L781.831 446.638L781.746 448.03C781.546 451.329 781.289 454.624 780.974 457.914V457.96C780.917 458.578 780.854 459.195 780.786 459.812C780.629 461.246 780.47 462.681 780.312 464.115L780.131 465.556L779.908 467.249C779.83 467.869 779.745 468.485 779.657 469.101C779.561 469.792 779.458 470.479 779.359 471.166L779.111 472.788L778.821 474.629C778.722 475.242 778.623 475.851 778.506 476.464C778.385 477.073 778.293 477.682 778.187 478.295C777.974 479.513 777.755 480.728 777.518 481.943C777.048 484.361 776.553 486.774 776.034 489.181C775.903 489.782 775.768 490.381 775.63 490.98C768.076 483.639 758.075 479.641 747.04 479.641C737.028 479.641 726.737 482.952 716.435 489.486C709.596 493.828 702.042 501.52 694.262 511.191C687.055 501.194 676.969 494.554 665.441 492.737C663.241 492.393 661.018 492.217 658.79 492.213C632.446 492.213 616.594 515.066 610.598 535.624C607.627 542.569 593.355 574.201 571.883 595.655C539.203 628.229 530.955 661.799 546.888 697.755ZM823.971 625.481L823.865 625.796C823.79 625.998 823.716 626.2 823.634 626.398C823.508 626.698 823.373 626.995 823.231 627.287C822.887 627.989 822.499 628.668 822.069 629.32C821.479 630.203 820.829 631.044 820.125 631.838C819.962 632.022 819.806 632.203 819.622 632.383C819.374 632.656 819.108 632.922 818.846 633.187C814.076 637.915 806.809 642.055 798.593 645.859C797.661 646.28 796.719 646.701 795.763 647.123L794.814 647.544C794.18 647.824 793.55 648.104 792.884 648.377C792.236 648.655 791.585 648.927 790.933 649.195L788.956 650.013C784.335 651.914 779.6 653.724 774.978 655.516L773.006 656.281L771.051 657.046C769.755 657.552 768.473 658.059 767.208 658.565L765.328 659.323L763.483 660.081L762.573 660.46C761.971 660.715 761.376 660.963 760.788 661.218C747.196 667.047 737.421 672.979 739.475 680.342C739.532 680.551 739.596 680.749 739.667 680.94C739.851 681.486 740.102 682.003 740.414 682.484C740.598 682.775 740.81 683.047 741.048 683.295C743.463 685.803 747.858 685.406 753.4 683.416C753.85 683.253 754.31 683.079 754.774 682.895C755.093 682.775 755.408 682.647 755.727 682.52L756.205 682.318C757.473 681.78 758.815 681.181 760.189 680.526C760.533 680.367 760.88 680.211 761.227 680.027C768.002 676.715 775.683 672.25 783.304 668.187C784.473 667.554 785.645 666.948 786.81 666.346C788.714 665.356 790.637 664.406 792.579 663.495C799.797 660.102 806.579 657.694 812.036 657.694C814.593 657.694 816.856 658.218 818.737 659.422L819.052 659.631C820.003 660.303 820.834 661.13 821.51 662.078C821.665 662.302 821.828 662.532 821.966 662.769C822.116 663.015 822.258 663.265 822.391 663.52C825.086 668.634 822.831 673.935 817.554 679.13C812.486 684.117 804.603 689.008 795.639 693.537C794.977 693.874 794.308 694.21 793.635 694.536C766.964 707.632 732.045 717.495 731.557 717.619C722.25 720.031 708.941 723.2 693.95 725.57L691.729 725.913L691.368 725.966C687.967 726.476 684.557 726.925 681.141 727.315L680.825 727.347C674.61 728.056 668.236 728.569 661.85 728.785H661.755C659.46 728.87 657.169 728.909 654.874 728.909H652.232C648.733 728.861 645.237 728.703 641.749 728.435C641.668 728.435 641.583 728.435 641.498 728.417C640.249 728.321 639.002 728.204 637.758 728.066C635.617 727.835 633.482 727.553 631.355 727.22C630.526 727.082 629.641 726.937 628.787 726.788C628.398 726.717 628.012 726.646 627.626 726.568L627.534 726.551C626.306 726.317 625.082 726.06 623.865 725.779C623.16 725.619 622.452 725.46 621.754 725.272L621.336 725.162C620.989 725.077 620.649 724.985 620.309 724.893L620.121 724.844L619.027 724.528C618.631 724.414 618.236 724.298 617.841 724.181L617.699 724.139L616.668 723.824C616.279 723.703 615.893 723.576 615.507 723.452C615.188 723.346 614.873 723.236 614.554 723.133L613.857 722.889C613.184 722.655 612.518 722.407 611.852 722.152L611.222 721.908L610.701 721.699C609.697 721.295 608.701 720.872 607.712 720.431L607.053 720.116L606.944 720.066C606.71 719.956 606.48 719.847 606.246 719.747C605.79 719.528 605.337 719.302 604.886 719.071L604.751 719.004L604.1 718.66C602.941 718.058 601.804 717.413 600.693 716.727L600.084 716.355C599.769 716.163 599.482 715.969 599.181 715.774L598.388 715.246C598.1 715.055 597.815 714.859 597.534 714.658L597.024 714.297C596.487 713.912 595.958 713.517 595.437 713.111C595.161 712.898 594.889 712.679 594.616 712.477C594.011 711.99 593.417 711.491 592.835 710.979L592.81 710.958C592.241 710.465 591.684 709.957 591.142 709.435L591.113 709.399C590.83 709.13 590.554 708.861 590.278 708.581C590.005 708.301 589.729 708.025 589.463 707.745C589.194 707.462 588.925 707.175 588.663 706.881C588.408 706.605 588.158 706.325 587.912 706.042L587.827 705.946C586.547 704.462 585.35 702.907 584.243 701.289L583.804 700.641C583.514 700.212 583.227 699.781 582.943 699.349L582.107 698.063C581.697 697.437 581.297 696.804 580.907 696.165C580.628 695.712 580.351 695.258 580.078 694.801C579.848 694.412 579.618 694.026 579.398 693.643C579.275 693.435 579.156 693.223 579.041 693.009C578.924 692.79 578.786 692.567 578.662 692.344L578.463 691.993C578.396 691.876 578.375 691.841 578.339 691.763C578.099 691.341 577.865 690.913 577.638 690.477C577.535 690.29 577.433 690.098 577.323 689.911L577.004 689.302L576.689 688.696L576.08 687.467C575.98 687.267 575.883 687.065 575.79 686.862C575.581 686.426 575.382 685.997 575.184 685.569C575.106 685.395 575.025 685.222 574.954 685.048C574.682 684.456 574.423 683.857 574.178 683.253C574.012 682.853 573.859 682.456 573.697 682.059C573.238 680.891 572.812 679.71 572.418 678.518C572.301 678.164 572.184 677.813 572.082 677.459C571.825 676.656 571.595 675.844 571.391 675.026C571.138 674.073 570.917 673.111 570.729 672.143C570.608 671.573 570.503 670.999 570.414 670.422C570.318 669.852 570.237 669.282 570.169 668.715C570.023 667.586 569.921 666.452 569.861 665.315C569.861 665.128 569.843 664.936 569.84 664.749C569.822 664.374 569.812 663.998 569.808 663.622C569.61 648.493 577.27 633.942 593.642 617.577C622.802 588.441 639.78 545.806 639.78 545.806C639.78 545.806 640.237 544.017 641.189 541.446C641.508 540.592 641.842 539.744 642.192 538.903C642.59 537.953 643.02 537.016 643.481 536.095L643.615 535.826C644.205 534.651 644.849 533.505 645.545 532.391C645.705 532.132 645.861 531.873 646.045 531.618C646.561 530.848 647.109 530.098 647.688 529.373C648.135 528.816 648.609 528.281 649.108 527.769C650.801 526.027 652.731 524.603 654.916 523.841L655.192 523.753C655.377 523.693 655.557 523.636 655.745 523.583C655.963 523.527 656.183 523.475 656.404 523.427L656.503 523.409C656.967 523.317 657.431 523.254 657.902 523.222H657.944C658.188 523.222 658.433 523.197 658.684 523.197C659.31 523.199 659.936 523.249 660.554 523.346C663.182 523.76 665.686 525.325 667.839 527.741L668.129 528.081C668.831 528.904 669.468 529.78 670.035 530.701C670.46 531.385 670.86 532.104 671.239 532.858C671.391 533.177 671.536 533.467 671.681 533.779C671.752 533.938 671.823 534.094 671.89 534.257C672.032 534.572 672.163 534.891 672.294 535.224C673.034 537.122 673.608 539.081 674.012 541.078C674.439 543.235 674.689 545.424 674.759 547.622C674.784 548.589 674.784 549.567 674.759 550.558C674.741 550.934 674.723 551.312 674.695 551.691C674.406 555.903 673.488 560.047 671.972 563.987C671.819 564.377 671.653 564.774 671.497 565.17C670.736 566.989 669.852 568.754 668.852 570.454C668.282 571.424 667.665 572.388 667.007 573.344L666.603 573.918C665.041 576.1 663.299 578.147 661.393 580.037C659.516 581.917 657.505 583.658 655.377 585.247C653.243 586.823 651.241 588.571 649.391 590.474C644.069 596.062 642.829 600.988 644.026 604.725C644.167 605.147 644.333 605.559 644.526 605.961C644.968 606.83 645.543 607.626 646.229 608.319L646.417 608.507C646.612 608.696 646.815 608.877 647.026 609.049L647.238 609.222C647.753 609.618 648.299 609.972 648.871 610.281C649.034 610.37 649.186 610.458 649.374 610.543C650.157 610.932 650.975 611.246 651.817 611.482L652.051 611.542L652.366 611.627L652.643 611.694L652.936 611.758L653.23 611.818L653.51 611.864C653.719 611.903 653.932 611.935 654.141 611.963L654.346 611.992L654.711 612.031L654.937 612.052L655.313 612.08H655.529L655.918 612.098H657.147L657.498 612.08L657.902 612.055L658.394 612.009L658.854 611.953C658.957 611.953 659.063 611.924 659.169 611.907C660.79 611.67 662.37 611.213 663.865 610.547C664.184 610.412 664.499 610.263 664.79 610.108C665.414 609.796 666.018 609.446 666.599 609.059C667.41 608.528 668.175 607.93 668.894 607.278L669.394 606.803C669.472 606.726 669.553 606.651 669.627 606.57C670.116 606.081 670.576 605.564 671.005 605.022C671.763 604.066 672.436 603.05 673.02 601.98C679.949 589.378 687.213 576.964 694.803 564.749L695.845 563.081L696.896 561.409C697.424 560.566 697.952 559.73 698.48 558.905L699.014 558.073L700.08 556.412C701.511 554.199 702.945 552.01 704.39 549.843L705.47 548.228C707.638 545.019 709.802 541.896 711.941 538.924L713.01 537.458C715.337 534.244 717.762 531.101 720.281 528.035L721.283 526.838C721.446 526.636 721.598 526.441 721.779 526.246L722.76 525.109C722.923 524.922 723.078 524.737 723.248 524.557L724.198 523.484L724.676 522.967C725.137 522.468 725.605 521.974 726.078 521.486C726.397 521.171 726.691 520.852 726.999 520.559C728.793 518.72 730.774 517.073 732.91 515.647L733.402 515.331L733.901 515.013C734.219 514.813 734.543 514.623 734.872 514.442C743.243 509.693 750.178 509.343 754.165 513.33C756.584 515.749 757.919 519.755 757.848 525.325C757.848 525.573 757.848 525.818 757.827 526.073V526.349C757.827 526.6 757.806 526.859 757.788 527.117C757.788 527.432 757.749 527.751 757.717 528.066C757.685 528.385 757.671 528.626 757.639 528.906C757.639 528.987 757.622 529.069 757.611 529.15C757.586 529.398 757.554 529.649 757.523 529.897C757.523 529.975 757.523 530.05 757.491 530.128C757.454 530.464 757.405 530.8 757.346 531.133C757.305 531.443 757.256 531.751 757.197 532.058C757.172 532.235 757.137 532.408 757.108 532.585C757.016 533.088 756.896 533.588 756.751 534.076C756.479 534.992 756.145 535.887 755.752 536.757C755.581 537.137 755.403 537.514 755.217 537.887C754.835 538.655 754.403 539.442 753.928 540.256C753.691 540.656 753.446 541.071 753.184 541.485L752.788 542.115C752.384 542.749 751.963 543.39 751.523 544.038C751.084 544.686 750.613 545.349 750.107 546.018C749.452 546.91 748.761 547.821 748.031 548.741L747.479 549.439C745.917 551.383 744.317 553.296 742.68 555.176L741.381 556.646L740.718 557.39C739.817 558.397 738.909 559.4 737.995 560.396L737.294 561.154C736.83 561.657 736.345 562.167 735.881 562.673C735.404 563.187 734.925 563.699 734.443 564.207L732.984 565.744L731.507 567.284C731.015 567.798 730.519 568.319 730.02 568.832L727.013 571.931C712.652 586.66 697.52 601.339 692.399 610.49C692.06 611.087 691.75 611.701 691.471 612.328C690.745 613.993 690.44 615.416 690.646 616.567C690.713 616.946 690.848 617.311 691.042 617.64C691.332 618.139 691.683 618.599 692.087 619.011C692.275 619.195 692.47 619.369 692.682 619.524C693.734 620.275 695.009 620.661 696.302 620.622H696.705L697.12 620.594L697.537 620.544L697.881 620.495C697.928 620.49 697.974 620.482 698.019 620.47L698.334 620.41L698.419 620.389L698.766 620.314L698.89 620.282L699.262 620.187L699.705 620.056C699.995 619.967 700.286 619.868 700.583 619.758C701.224 619.531 701.851 619.27 702.464 618.975C702.62 618.901 702.779 618.83 702.931 618.749L703.402 618.515C704.018 618.203 704.631 617.867 705.247 617.502C705.74 617.212 706.228 616.914 706.717 616.599L707.191 616.284C707.347 616.185 707.507 616.082 707.663 615.965L708.134 615.65L708.381 615.476L709.061 615.002C709.695 614.563 710.287 614.113 710.889 613.656L710.942 613.617L711.891 612.881C713.191 611.854 714.427 610.819 715.542 609.846L716.286 609.19L716.357 609.127L716.743 608.783C717.656 607.965 718.471 607.2 719.151 606.566L719.427 606.297L720.096 605.663L720.497 605.274L720.635 605.132L720.674 605.093C721.014 604.752 721.014 604.752 721.354 604.41L721.382 604.381L721.51 604.268C721.549 604.225 721.602 604.183 721.662 604.13L721.711 604.084L721.846 603.963L722.565 603.329L722.969 602.965C723.167 602.795 723.383 602.6 723.603 602.391L724.088 601.966C724.173 601.895 724.258 601.814 724.346 601.736L724.853 601.293L725.6 600.641L725.993 600.298C727.534 598.956 729.411 597.337 731.56 595.513L732.442 594.77L733.901 593.548L735.389 592.301C737.336 590.686 739.433 588.969 741.65 587.184L743.105 586.015C744.345 585.031 745.62 584.021 746.909 583.008C747.426 582.601 747.954 582.194 748.492 581.79C749.812 580.769 751.139 579.756 752.473 578.752C755.511 576.457 758.645 574.158 761.815 571.917L763.178 570.971C764.127 570.312 765.076 569.657 766.029 569.016L766.89 568.432C768.592 567.285 770.309 566.163 772.043 565.064L772.903 564.522L773.757 563.991C774.61 563.463 775.464 562.939 776.306 562.433L777.153 561.93L778.849 560.942C779.405 560.619 779.958 560.304 780.51 559.993L780.843 559.805L782.16 559.086C782.706 558.789 783.255 558.502 783.797 558.222L784.611 557.804L785.397 557.404C787.196 556.5 789.028 555.665 790.89 554.9C791.145 554.794 791.397 554.691 791.648 554.581C792.147 554.372 792.643 554.181 793.135 554.011C793.628 553.845 794.113 553.671 794.591 553.501C795.027 553.356 795.448 553.221 795.859 553.094L795.997 553.051C796.216 552.984 796.436 552.92 796.656 552.864L796.719 552.846C797.164 552.718 797.611 552.601 798.062 552.495H798.097C798.759 552.336 799.404 552.201 800.034 552.095C800.25 552.06 800.463 552.024 800.668 551.996C801.28 551.905 801.896 551.839 802.513 551.798C802.903 551.771 803.294 551.758 803.685 551.759H803.983C804.38 551.759 804.762 551.784 805.141 551.822C805.314 551.822 805.488 551.854 805.658 551.879H805.729C805.899 551.897 806.072 551.925 806.239 551.961C806.405 551.996 806.575 552.021 806.738 552.06H806.795C806.958 552.095 807.11 552.141 807.28 552.187C808.633 552.551 809.877 553.238 810.906 554.188L810.999 554.28L811.179 554.457L811.356 554.645C812.776 556.139 813.952 557.85 814.837 559.713L814.976 560.028C815.277 560.735 815.513 561.469 815.68 562.22C816.141 564.313 816.017 566.495 815.319 568.52C815.019 569.402 814.649 570.258 814.214 571.081L813.924 571.605C812.82 573.457 811.515 575.182 810.032 576.747L809.713 577.084C809.014 577.825 808.29 578.542 807.542 579.233C807.305 579.456 807.06 579.68 806.812 579.903L806.437 580.243C805.657 580.933 804.862 581.607 804.054 582.265C803.912 582.378 803.767 582.491 803.629 582.612C803.066 583.065 802.485 583.526 801.883 583.986C799.809 585.572 797.694 587.103 795.54 588.579C794.272 589.447 792.962 590.322 791.609 591.211C789.089 592.863 786.547 594.483 783.984 596.069C783.244 596.526 782.5 596.99 781.743 597.451C774.777 601.736 767.053 606.318 758.815 611.301L756.683 612.597C754.349 614.021 752.147 615.381 750.075 616.673L749.03 617.332L747.054 618.6C746.271 619.096 745.51 619.585 744.77 620.066C744.21 620.424 743.665 620.778 743.13 621.129L742.075 621.823C741.561 622.158 741.05 622.497 740.541 622.839L740.046 623.154C739.521 623.505 739.011 623.849 738.516 624.188L737.705 624.741L736.752 625.403L735.874 626.016C734.487 626.991 733.114 627.985 731.755 628.998L731.28 629.359C730.746 629.763 730.229 630.166 729.729 630.56L729.078 631.08C727.98 631.962 726.985 632.808 726.085 633.616L725.646 634.02C725.395 634.25 725.147 634.48 724.913 634.707C724.746 634.862 724.594 635.022 724.428 635.178L724.198 635.404C723.69 635.91 723.197 636.431 722.721 636.966L722.487 637.235C721.966 637.837 721.513 638.414 721.113 638.978L720.936 639.233C720.475 639.907 720.068 640.618 719.721 641.357L719.601 641.616L719.526 641.797L719.466 641.952L719.385 642.168C719.36 642.243 719.31 642.374 719.282 642.487C719.138 642.91 719.03 643.345 718.96 643.787L718.924 644.024L718.896 644.24L718.878 644.449V645.561C718.878 645.653 718.878 645.749 718.9 645.844C718.904 645.901 718.91 645.958 718.917 646.014C718.917 646.107 718.942 646.199 718.953 646.294L719.02 646.684V646.701C719.045 646.825 719.07 646.949 719.101 647.073C719.133 647.197 719.165 647.335 719.204 647.466C719.318 647.868 719.455 648.263 719.615 648.649C719.615 648.678 719.64 648.709 719.65 648.738C719.693 648.833 719.732 648.933 719.778 649.028C719.952 649.432 720.146 649.826 720.359 650.211L720.582 650.611L720.815 651.015L721.06 651.419C721.102 651.485 721.15 651.548 721.201 651.606L721.283 651.691L721.368 651.769L721.464 651.844C721.528 651.889 721.596 651.93 721.665 651.968C721.736 651.999 721.814 652.035 721.892 652.063C721.975 652.093 722.061 652.118 722.147 652.138C724.19 652.598 728.391 650.905 733.968 647.959L734.971 647.427L736.667 646.503L737.499 646.043C738.087 645.724 738.693 645.37 739.305 645.019L740.428 644.385C747.805 640.139 756.62 634.682 765.728 629.355C766.578 628.856 767.435 628.36 768.292 627.864L770.013 626.767C770.874 626.271 771.731 625.782 772.591 625.3C776.255 623.219 779.964 621.219 783.715 619.301L785.397 618.448C786.516 617.895 787.625 617.357 788.719 616.833C790.839 615.829 792.982 614.875 795.147 613.971L796.333 613.49L796.479 613.433C802.761 610.943 808.459 609.403 813.07 609.403C814.069 609.396 815.064 609.477 816.049 609.647H816.077C816.396 609.704 816.683 609.768 816.973 609.842H817.026C817.451 609.944 817.867 610.077 818.273 610.239C818.594 610.356 818.906 610.496 819.208 610.657C820.527 611.327 821.659 612.315 822.501 613.532C822.572 613.635 822.639 613.741 822.703 613.851C823.015 614.325 823.283 614.826 823.503 615.349C823.634 615.65 823.755 615.962 823.868 616.298C823.981 616.638 824.081 616.964 824.183 617.314C824.934 619.999 824.86 622.839 823.971 625.481Z" fill="#FF9D00"/>
<path fill-rule="evenodd" clip-rule="evenodd" d="M782.189 433.129V431.394C782.189 283.17 662.07 163.012 513.835 163.012C365.608 163.012 245.443 283.177 245.443 431.394L245.439 431.975C245.436 432.361 245.432 432.743 245.439 433.129C245.456 433.706 245.462 434.284 245.457 434.861L245.478 436.136L245.485 436.596L245.503 437.227C245.51 437.567 245.521 437.903 245.521 438.243L245.556 439.621L245.613 441.239L245.631 441.77L245.701 443.446V443.523L245.801 445.482V445.531C245.836 446.201 245.871 446.87 245.914 447.536C245.949 448.156 245.988 448.772 246.031 449.388L246.041 449.498C246.073 450.027 246.108 450.556 246.148 451.084L246.158 451.223C246.194 451.733 246.233 452.246 246.275 452.752L246.282 452.852L246.353 453.737C246.565 456.291 246.813 458.843 247.097 461.39L247.115 461.549L247.327 463.419L247.571 465.388C247.735 466.698 247.91 468.006 248.095 469.312C248.206 470.1 248.321 470.888 248.439 471.674L248.457 471.77C248.721 473.549 249.007 475.324 249.314 477.096C250.194 482.237 251.229 487.349 252.416 492.427L252.434 492.509L252.547 492.987C252.653 493.44 252.76 493.893 252.873 494.35L253.068 494.113C260.859 484.799 272.036 479.664 284.541 479.664C294.563 479.664 304.847 482.975 315.149 489.509C321.984 493.851 329.542 501.543 337.319 511.215C344.515 501.217 354.601 494.577 366.139 492.764C368.342 492.417 370.566 492.24 372.79 492.236C399.128 492.236 414.99 515.093 420.982 535.647C423.939 542.595 438.211 574.224 459.729 595.622C492.434 628.299 500.619 662.02 484.434 698.125H484.487C485.592 698.246 486.701 698.359 487.813 698.462C488.475 698.526 489.137 698.589 489.799 698.646L490.033 698.667C490.518 698.713 491.007 698.756 491.496 698.791L492.842 698.901C494.124 699 495.409 699.089 496.702 699.174L497.722 699.234L498.533 699.28L499.039 699.308L500.619 699.393L501.051 699.411L502.715 699.482L504.56 699.553L506.048 699.595L506.296 699.606C506.607 699.616 506.926 699.63 507.241 699.63L507.578 699.638C509.665 699.688 511.754 699.713 513.842 699.712H516.059L517.646 699.694C518.035 699.673 518.422 699.673 518.811 699.673H519.427L519.962 699.662C520.171 699.655 520.383 699.648 520.592 699.648H521.226L522.469 699.613L524.339 699.549L526.4 699.461C526.992 699.436 527.58 699.407 528.171 699.376L528.805 699.34L529.744 699.287L530.3 699.255L530.714 699.23L532.616 699.103C533.25 699.064 533.884 699.014 534.517 698.965L536.239 698.83L537.453 698.727L538.781 698.607C540.145 698.479 541.505 698.345 542.858 698.203C543.722 698.108 544.579 698.012 545.439 697.909L546.951 697.729C531.018 661.772 539.266 628.203 571.841 595.653C593.309 574.203 607.581 542.567 610.556 535.622C616.552 515.064 632.4 492.211 658.744 492.211C660.972 492.215 663.196 492.388 665.395 492.739C676.923 494.552 687.012 501.196 694.219 511.19C702 501.518 709.554 493.826 716.389 489.484C726.691 482.95 736.982 479.639 746.994 479.639C758.029 479.639 768.034 483.641 775.588 490.979C776.003 489.131 776.402 487.28 776.784 485.426C777.018 484.268 777.248 483.106 777.475 481.941C777.752 480.509 778.012 479.073 778.254 477.635C778.318 477.245 778.385 476.856 778.46 476.462C778.576 475.85 778.679 475.244 778.775 474.628L778.814 474.394L779.065 472.79L779.313 471.164L779.317 471.147C779.416 470.467 779.518 469.783 779.611 469.1C779.685 468.583 779.756 468.066 779.823 467.545L779.866 467.248L780.085 465.555L780.266 464.113C780.376 463.164 780.482 462.215 780.584 461.263C780.63 460.884 780.669 460.501 780.708 460.119L780.744 459.811C780.811 459.178 780.872 458.546 780.928 457.912L781.07 456.439C781.362 453.176 781.6 449.908 781.785 446.636V446.615L781.881 444.88L781.898 444.49L781.969 442.843C781.997 442.224 782.022 441.597 782.044 440.963V440.917L782.061 440.46C782.079 440.071 782.093 439.681 782.093 439.295L782.1 439.136C782.114 438.774 782.129 438.399 782.129 438.027L782.139 437.708C782.15 437.336 782.16 436.968 782.16 436.596L782.167 436.281C782.178 435.807 782.189 435.336 782.189 434.861V433.129ZM447.27 701.242C468.522 670.07 467.017 646.675 437.854 617.529C408.69 588.383 391.715 545.758 391.715 545.758C391.715 545.758 385.38 520.996 370.931 523.273C356.482 525.547 345.882 562.544 376.133 585.192C406.384 607.84 370.116 623.195 358.472 601.943C346.824 580.687 315.036 526.053 298.551 515.603C282.069 505.152 270.477 511.009 274.362 532.548C276.293 543.24 294.241 561.486 311.009 578.534C328.022 595.834 343.821 611.895 340.446 617.579C333.742 628.869 310.131 604.316 310.131 604.316C310.131 604.316 236.2 537.039 220.104 554.573C205.269 570.732 228.146 584.47 263.405 605.64C266.405 607.443 269.493 609.299 272.655 611.211C312.993 635.633 316.13 642.075 310.407 651.314C308.293 654.728 294.79 646.622 278.18 636.649C249.866 619.65 212.529 597.237 207.259 617.299C202.694 634.663 230.162 645.301 255.072 654.952C275.825 662.991 294.807 670.343 292.017 680.323C289.123 690.667 273.438 682.04 256.29 672.606C237.043 662.013 215.953 650.408 209.055 663.504C196.008 688.259 299.043 717.401 299.889 717.614C333.179 726.248 417.72 744.543 447.27 701.242ZM584.197 701.242C562.941 670.07 564.45 646.675 593.614 617.529C622.777 588.383 639.755 545.758 639.755 545.758C639.755 545.758 646.087 520.996 660.536 523.273C674.986 525.547 685.589 562.544 655.334 585.192C625.079 607.84 661.351 623.195 672.999 601.943C684.643 580.687 716.417 526.053 732.899 515.603C749.381 505.152 760.975 511.009 757.09 532.548C755.16 543.24 737.212 561.489 720.44 578.538C703.43 595.834 687.632 611.895 691.007 617.579C697.707 628.869 721.34 604.302 721.34 604.302C721.34 604.302 795.267 537.025 811.363 554.559C826.198 570.718 803.317 584.459 768.058 605.633C765.059 607.432 761.974 609.285 758.812 611.2C718.471 635.619 715.337 642.064 721.06 651.3C723.174 654.714 736.678 646.608 753.283 636.639C781.601 619.64 818.938 597.222 824.208 617.285C828.773 634.648 801.305 645.29 776.391 654.941C755.638 662.98 736.66 670.328 739.447 680.312C742.34 690.656 758.018 682.026 775.159 672.592C794.407 661.999 815.5 650.39 822.402 663.49C835.449 688.262 732.4 717.373 731.564 717.589C698.274 726.248 613.733 744.543 584.197 701.242Z" fill="#FFD21E"/>
<path fill-rule="evenodd" clip-rule="evenodd" d="M600.999 358.343C605.182 359.823 608.295 364.331 611.255 368.617C615.257 374.414 618.983 379.804 624.699 376.765C631.443 373.182 636.973 367.678 640.588 360.95C644.204 354.222 645.742 346.573 645.009 338.971C644.463 333.286 642.663 327.794 639.739 322.888C636.814 317.983 632.838 313.788 628.097 310.605C623.356 307.422 617.967 305.33 612.32 304.48C606.673 303.631 600.907 304.045 595.439 305.692C588.127 307.894 581.631 312.215 576.773 318.107C571.915 323.999 568.913 331.199 568.145 338.798C567.38 346.397 568.885 354.053 572.469 360.797C575.118 365.78 580.997 363.432 587.202 360.949C592.068 359.005 597.132 356.979 600.999 358.343ZM419.054 358.346C414.871 359.827 411.755 364.335 408.794 368.62C404.792 374.414 401.067 379.808 395.351 376.769C390.311 374.086 385.929 370.32 382.519 365.741C379.109 361.161 376.757 355.884 375.631 350.286C374.506 344.689 374.635 338.912 376.009 333.371C377.383 327.83 379.968 322.662 383.579 318.239C387.193 313.819 391.742 310.255 396.899 307.803C402.055 305.352 407.691 304.074 413.401 304.061C419.11 304.049 424.752 305.302 429.919 307.731C435.086 310.16 439.651 313.704 443.284 318.108C448.144 324.001 451.147 331.202 451.913 338.802C452.679 346.401 451.174 354.057 447.587 360.801C444.931 365.783 439.052 363.432 432.848 360.949C427.985 359.005 422.921 356.979 419.054 358.346ZM572.852 523.913C601.69 501.191 612.282 464.101 612.282 441.252C612.282 423.19 600.128 428.874 580.675 438.504L579.581 439.049C561.721 447.892 537.951 459.664 511.857 459.664C485.76 459.664 461.99 447.888 444.138 439.045C424.054 429.097 411.457 422.857 411.457 441.255C411.457 464.824 422.726 503.528 453.661 526.016C457.74 517.73 463.486 510.375 470.539 504.411C477.592 498.448 485.8 494.004 494.649 491.36C497.738 490.439 500.918 495.755 504.176 501.194C507.317 506.446 510.526 511.815 513.795 511.815C517.272 511.815 520.693 506.524 524.033 501.357C527.521 495.96 530.921 490.697 534.211 491.749C550.769 497.064 564.621 508.594 572.852 523.913Z" fill="#32343D"/>
<path d="M572.846 523.907C557.827 535.743 537.864 543.679 511.87 543.679C487.444 543.679 468.338 536.674 453.666 526.011C457.748 517.726 463.495 510.373 470.548 504.41C477.601 498.447 485.807 494.002 494.655 491.354C500.721 489.544 507.145 511.81 513.796 511.81C520.918 511.81 527.778 489.686 534.216 491.744C550.77 497.062 564.617 508.591 572.846 523.907Z" fill="#FF323D"/>
<path fill-rule="evenodd" clip-rule="evenodd" d="M350.101 390.476C347.36 392.32 344.283 393.605 341.045 394.258C337.807 394.91 334.472 394.917 331.231 394.279C327.99 393.64 324.907 392.367 322.159 390.535C319.411 388.702 317.052 386.345 315.216 383.599C313.381 380.853 312.105 377.771 311.463 374.531C310.821 371.291 310.825 367.956 311.474 364.717C312.123 361.478 313.405 358.399 315.247 355.657C317.088 352.915 319.453 350.563 322.205 348.736C327.74 345.063 334.506 343.733 341.02 345.039C347.534 346.344 353.265 350.179 356.956 355.703C360.648 361.226 361.999 367.988 360.714 374.506C359.429 381.024 355.613 386.767 350.101 390.476ZM709.246 390.476C706.506 392.32 703.429 393.605 700.19 394.258C696.952 394.91 693.617 394.917 690.377 394.279C687.136 393.64 684.053 392.367 681.305 390.535C678.557 388.702 676.197 386.345 674.362 383.599C672.526 380.853 671.251 377.771 670.609 374.531C669.967 371.291 669.97 367.956 670.62 364.717C671.269 361.478 672.551 358.399 674.392 355.657C676.234 352.915 678.598 350.563 681.35 348.736C686.886 345.063 693.652 343.733 700.166 345.039C706.679 346.344 712.41 350.179 716.102 355.703C719.793 361.226 721.145 367.988 719.86 374.506C718.575 381.024 714.758 386.767 709.246 390.476Z" fill="#FFAD03"/>
<defs>
<filter id="filter0_d_1148_7467" x="106.694" y="73.5362" width="821.462" height="769.204" filterUnits="userSpaceOnUse" color-interpolation-filters="sRGB">
<feFlood flood-opacity="0" result="BackgroundImageFix"/>
<feColorMatrix in="SourceAlpha" type="matrix" values="0 0 0 0 0 0 0 0 0 0 0 0 0 0 0 0 0 0 127 0" result="hardAlpha"/>
<feOffset dy="10.6244"/>
<feGaussianBlur stdDeviation="23.0194"/>
<feColorMatrix type="matrix" values="0 0 0 0 0 0 0 0 0 0 0 0 0 0 0 0 0 0 0.1 0"/>
<feBlend mode="normal" in2="BackgroundImageFix" result="effect1_dropShadow_1148_7467"/>
<feBlend mode="normal" in="SourceGraphic" in2="effect1_dropShadow_1148_7467" result="shape"/>
</filter>
</defs>
</svg>
