<?xml version="1.0" encoding="UTF-8"?>
<svg id="a" data-name="Wordmark" xmlns="http://www.w3.org/2000/svg" width="3203.29" height="1543.69" viewBox="0 0 3203.29 1543.69">
  <path d="M782.84,486.69c-35.01-23.22-77.26-34.85-126.74-34.85s-91.74,11.63-126.74,34.85c-35.01,23.24-61.71,57.19-80.12,101.84-18.41,44.67-27.61,98.38-27.61,161.14v59.75c0,62.78,9.19,116.48,27.61,161.13,18.4,44.67,45.11,78.62,80.12,101.84,34.99,23.22,77.24,34.85,126.74,34.85s91.73-11.63,126.74-34.85c34.99-23.22,61.7-57.17,80.12-101.84,18.4-44.65,27.61-98.36,27.61-161.13v-59.75c0-62.76-9.21-116.47-27.61-161.14-18.42-44.65-45.12-78.6-80.12-101.84ZM513.08,749.67c0-75.43,11.77-131.56,35.3-168.38,23.54-36.8,59.43-55.22,107.73-55.22s84.03,18.41,107.27,55.22c4.64,7.36,8.81,15.5,12.52,24.4l-258.34,276.95c-2.98-21.96-4.48-46.36-4.48-73.22v-59.75ZM798.23,809.42c0,75.44-11.63,131.57-34.85,168.38-23.24,36.82-59,55.23-107.27,55.23s-84.19-18.41-107.73-55.23c-3.32-5.19-6.4-10.78-9.25-16.75l255.99-273.72c2.07,19.07,3.11,39.84,3.11,62.35v59.75Z"/>
  <polygon points="1403.85 691.73 1341.38 631.98 1184.77 802.18 1024.54 631.98 961.17 692.63 1123.22 864.63 961.17 1039.35 1023.64 1099.1 1182.06 926.19 1341.38 1099.1 1404.75 1039.35 1243.61 863.73 1403.85 691.73"/>
  <rect x="1583.99" y="439.16" width="110.44" height="108.63"/>
  <polygon points="1691.71 639.23 1477.17 639.23 1477.17 711.65 1603.9 711.65 1603.9 1019.44 1468.11 1019.44 1468.11 1091.86 1825.69 1091.86 1825.69 1019.44 1691.71 1019.44 1691.71 639.23"/>
  <path d="M2194.13,704.4c-13.89-23.54-32.74-42.09-56.58-55.67-23.85-13.58-51.46-20.37-82.83-20.37-41.05,0-76.95,9.66-107.73,28.97-30.78,19.32-54.47,46.77-71.06,82.38-16.61,35.62-24.89,77.26-24.89,124.92s7.84,89.48,23.54,125.38c15.69,35.91,38.02,63.68,66.99,83.28,28.97,19.6,62.76,29.42,101.39,29.42,70,0,121.6-30.47,154.8-91.43v80.57h84.19V436.45h-87.81v267.96ZM2195.94,874.6c0,47.68-11.47,85.25-34.4,112.7-22.94,27.47-54.02,41.19-93.24,41.19s-69.71-14.33-91.43-43c-21.73-28.66-32.59-68.95-32.59-120.86s11.01-91.12,33.04-119.49c22.02-28.36,53.25-42.54,93.69-42.54,38.02,0,68.35,13.73,90.98,41.19,22.63,27.47,33.95,64.43,33.95,110.89v19.92Z"/>
  <path d="M2712.84,950.63c-15.7,24.15-34.1,43-55.22,56.58-21.13,13.58-44.67,20.37-70.61,20.37-37.43,0-67.44-12.52-90.07-37.56-22.63-25.04-34.56-58.08-35.76-99.13h319.56v-41.64c0-68.8-17.51-122.81-52.5-162.04-35.01-39.23-82.99-58.84-143.94-58.84-65.79,0-117.84,20.52-156.16,61.56-38.33,41.05-57.49,96.56-57.49,166.57,0,77.26,19.01,137.6,57.03,181.05,38.02,43.45,91.12,65.18,159.33,65.18,39.83,0,76.64-9.21,110.44-27.61,33.79-18.4,61.85-45.1,84.19-80.11l-68.8-44.36ZM2495.13,729.3c22.02-22.63,51.15-33.95,87.36-33.95s61.56,11.32,81.47,33.95c19.92,22.63,29.88,53.27,29.88,91.88h-232.65c.59-38.62,11.91-69.25,33.95-91.88Z"/>
</svg>